<svg width="16" height="18" viewBox="0 0 16 18" fill="none" xmlns="http://www.w3.org/2000/svg">
<path d="M13.4444 8H2.55556C1.69645 8 1 8.69645 1 9.55556V15C1 15.8591 1.69645 16.5556 2.55556 16.5556H13.4444C14.3036 16.5556 15 15.8591 15 15V9.55556C15 8.69645 14.3036 8 13.4444 8Z" stroke="#665E66" stroke-width="1.8" stroke-linecap="round" stroke-linejoin="round"/>
<path d="M4.11108 8V4.88889C4.11108 3.85749 4.52081 2.86834 5.25011 2.13903C5.97942 1.40972 6.96858 1 7.99997 1C9.03137 1 10.0205 1.40972 10.7498 2.13903C11.4791 2.86834 11.8889 3.85749 11.8889 4.88889V8" stroke="#665E66" stroke-width="1.8" stroke-linecap="round" stroke-linejoin="round"/>
</svg>
